<svg width="25" height="25" viewBox="0 0 25 25" fill="none" xmlns="http://www.w3.org/2000/svg">
<g id="Frame">
<g id="Windy">
<g id="Group">
<g id="Group-2">
<g id="Group_2">
<path id="Oval-6" d="M11.7188 10.1562C13.8761 10.1562 15.625 8.40736 15.625 6.25C15.625 4.09264 13.8761 2.34375 11.7188 2.34375C9.56139 2.34375 7.8125 4.09264 7.8125 6.25" stroke="white" stroke-width="2" stroke-linecap="round"/>
</g>
<path id="Path-9" d="M3.90625 10.1562H11.7188" stroke="white" stroke-width="2" stroke-linecap="round"/>
</g>
<g id="Group-3">
<path id="Path-10" d="M4.6875 16.4062H15.625" stroke="white" stroke-width="2" stroke-linecap="round"/>
<path id="Oval-7" d="M13.2812 18.75C13.2812 20.0444 14.3306 21.0938 15.625 21.0938C16.9194 21.0938 17.9688 20.0444 17.9688 18.75C17.9688 17.4556 16.9194 16.4062 15.625 16.4062" stroke="white" stroke-width="2" stroke-linecap="round"/>
</g>
<g id="Group-4">
<path id="Oval-8" d="M18.75 13.2812C20.9074 13.2812 22.6562 11.5324 22.6562 9.375C22.6562 7.21764 20.9074 5.46875 18.75 5.46875C18.5185 5.46875 18.2917 5.48889 18.0713 5.5275" stroke="white" stroke-width="2" stroke-linecap="round"/>
<path id="Path-11" d="M2.34375 13.2812H18.75" stroke="white" stroke-width="2" stroke-linecap="round"/>
</g>
</g>
</g>
</g>
</svg>
